<svg xmlns="http://www.w3.org/2000/svg" viewBox="0 0 227 51.6317"><script xmlns=""/><g fill="#fff"><path d="m163.581 11.0764v4.1099h-.326c-2.259-2.9395-6.124-4.491-10.261-4.491-9.2 0-13.909 6.1241-13.909 15.3239 0 8.9821 4.709 15.1606 13.854 15.1606 4.11 0 8.084-1.3337 10.343-4.2733h.327v3.9195h7.24v-29.7496zm-.408 23.2172h-16.004v-16.6848h16.004z"/><path d="m106.26 10.7227c-4.138 0-8.0025 1.5514-10.2617 4.491h-.3266v-4.1372h-7.2401v40.5552h7.2401v-14.725h.3266c2.2592 2.9395 6.2327 4.2732 10.3427 4.2732 9.118 0 13.854-6.1785 13.854-15.1606-.027-9.1997-4.736-15.2966-13.935-15.2966zm5.797 23.571h-16.0042v-16.6848h16.0042z"/><path d="m17.8552 10.7292c-4.1372 0-8.00218 1.5514-10.2613 4.491h-.32662v-14.94286h-7.26728v40.55526h7.24007v-3.8922h.32661c2.25912 2.9396 6.233 4.2732 10.34292 4.2732 9.1182 0 13.8541-6.1785 13.8541-15.1605 0-9.227-4.7087-15.3239-13.9085-15.3239zm5.7975 23.571h-16.00436v-16.6848h16.00436z"/><path d="m66.7669 21.2029c-1.4426-6.6685-6.7229-10.6424-14.4529-10.6424-9.3903 0-15.5689 6.2875-15.5689 15.2423 0 9.3086 5.4709 15.3783 15.6233 15.3783 6.5324 0 12.3027-3.1301 14.589-9.5536h-7.73c-1.3609 2.4769-3.9739 3.5112-6.8318 3.5112-5.0626 0-8.3832-3.239-8.4376-7.8389l23.2444.1633a24.69224 24.69224 0 0 0 -.4355-6.2602zm-22.6728 1.3881c.4899-3.4567 2.9667-6.1785 7.8116-6.1785 4.9537 0 7.5939 2.7218 7.8116 6.1785z"/><path d="m190.447 41.263c-7.322 0-13.882-1.9325-13.882-9.4719h7.023c.299 2.8034 3.538 3.6472 6.859 3.6472 2.912 0 5.471-.7893 5.471-3.0484 0-1.1976-.599-1.8781-1.987-2.3408a33.822 33.822 0 0 0 -5.498-.8982 26.331 26.331 0 0 1 -7.104-1.6331c-3.539-1.4698-4.328-4.5999-4.328-7.2129 0-6.5323 5.389-9.6897 12.575-9.6897 6.614 0 12.683 2.2592 12.683 8.9821h-6.913c-.082-2.1503-2.422-3.2118-5.961-3.2118-2.912 0-5.171.9527-5.171 2.9396 0 .9526.462 1.6331 1.851 2.0686a35.15845 35.15845 0 0 0 5.797 1.0615 38.49354 38.49354 0 0 1 5.444.9798c4.219 1.1704 6.178 3.6473 6.178 8.0839-.027 6.7229-5.879 9.7441-13.037 9.7441z"/><path d="m227 17.3938h-9.009v16.5487h8.329v6.8863h-8.438c-4.817 0-7.539-1.4698-7.539-6.5324v-16.9026h-4.845v-6.3146h4.954v-9.09092h7.539v9.09092h9.009z"/><path d="m133.858 0h-7.703v40.8274h7.703z"/><path d="m81.2734 31.6543h-8.6826v9.1726h8.6826z"/><path d="m81.2734 11.0781h-8.6826v9.1726h8.6826z"/></g></svg>